{"asset":{"version":"2.0","generator":"Velda AI procedural foot v1 (placeholder)","extras":{"units":"meters","side":"right","orientation":"Y up, +Z anterior (toes), +X medial","footLength_m":0.2686}},"scene":0,"scenes":[{"nodes":[0]}],"nodes":[{"name":"Foot_Right","mesh":0}],"meshes":[{"name":"Foot_Right","primitives":[{"attributes":{"POSITION":0,"NORMAL":1},"indices":2,"material":0,"mode":4,"extras":{"region":"hallux"}}]},{"name":"Foot_Right_lesser_toes","primitives":[{"attributes":{"POSITION":3,"NORMAL":4},"indices":5,"material":1,"mode":4,"extras":{"region":"lesser_toes"}}]},{"name":"Foot_Right_metatarsal_heads","primitives":[{"attributes":{"POSITION":6,"NORMAL":7},"indices":8,"material":2,"mode":4,"extras":{"region":"metatarsal_heads"}}]},{"name":"Foot_Right_dorsum_forefoot","primitives":[{"attributes":{"POSITION":9,"NORMAL":10},"indices":11,"material":3,"mode":4,"extras":{"region":"dorsum_forefoot"}}]},{"name":"Foot_Right_medial_arch","primitives":[{"attributes":{"POSITION":12,"NORMAL":13},"indices":14,"material":4,"mode":4,"extras":{"region":"medial_arch"}}]},{"name":"Foot_Right_medial_border","primitives":[{"attributes":{"POSITION":15,"NORMAL":16},"indices":17,"material":5,"mode":4,"extras":{"region":"medial_border"}}]},{"name":"Foot_Right_lateral_border","primitives":[{"attributes":{"POSITION":18,"NORMAL":19},"indices":20,"material":6,"mode":4,"extras":{"region":"lateral_border"}}]},{"name":"Foot_Right_dorsum_midfoot","primitives":[{"attributes":{"POSITION":21,"NORMAL":22},"indices":23,"material":7,"mode":4,"extras":{"region":"dorsum_midfoot"}}]},{"name":"Foot_Right_heel_plantar","primitives":[{"attributes":{"POSITION":24,"NORMAL":25},"indices":26,"material":8,"mode":4,"extras":{"region":"heel_plantar"}}]},{"name":"Foot_Right_achilles_heel","primitives":[{"attributes":{"POSITION":27,"NORMAL":28},"indices":29,"material":9,"mode":4,"extras":{"region":"achilles_heel"}}]},{"name":"Foot_Right_medial_malleolus","primitives":[{"attributes":{"POSITION":30,"NORMAL":31},"indices":32,"material":10,"mode":4,"extras":{"region":"medial_malleolus"}}]},{"name":"Foot_Right_lateral_malleolus","primitives":[{"attributes":{"POSITION":33,"NORMAL":34},"indices":35,"material":11,"mode":4,"extras":{"region":"lateral_malleolus"}}]},{"name":"Foot_Right_ankle_anterior","primitives":[{"attributes":{"POSITION":36,"NORMAL":37},"indices":38,"material":12,"mode":4,"extras":{"region":"ankle_anterior"}}]},{"name":"Foot_Right_lower_leg","primitives":[{"attributes":{"POSITION":39,"NORMAL":40},"indices":41,"material":13,"mode":4,"extras":{"region":"lower_leg"}}]}],"materials":[{"name":"hallux","pbrMetallicRoughness":{"baseColorFactor":[0.8509803921568627,0.30980392156862746,0.41568627450980394,1],"metallicFactor":0,"roughnessFactor":0.72},"doubleSided":false,"extras":{"region":"hallux","label":"Great toe (hallux)","highlightColor":"#D94F6A"}},{"name":"lesser_toes","pbrMetallicRoughness":{"baseColorFactor":[0.8784313725490196,0.5019607843137255,0.24705882352941178,1],"metallicFactor":0,"roughnessFactor":0.72},"doubleSided":false,"extras":{"region":"lesser_toes","label":"Lesser toes (2–5)","highlightColor":"#E0803F"}},{"name":"metatarsal_heads","pbrMetallicRoughness":{"baseColorFactor":[0.9098039215686274,0.7019607843137254,0.23529411764705882,1],"metallicFactor":0,"roughnessFactor":0.72},"doubleSided":false,"extras":{"region":"metatarsal_heads","label":"Ball of foot / metatarsal heads","highlightColor":"#E8B33C"}},{"name":"dorsum_forefoot","pbrMetallicRoughness":{"baseColorFactor":[0.5607843137254902,0.7490196078431373,0.3215686274509804,1],"metallicFactor":0,"roughnessFactor":0.72},"doubleSided":false,"extras":{"region":"dorsum_forefoot","label":"Dorsal forefoot","highlightColor":"#8FBF52"}},{"name":"medial_arch","pbrMetallicRoughness":{"baseColorFactor":[0.24705882352941178,0.6627450980392157,0.47843137254901963,1],"metallicFactor":0,"roughnessFactor":0.72},"doubleSided":false,"extras":{"region":"medial_arch","label":"Medial arch / plantar midfoot","highlightColor":"#3FA97A"}},{"name":"medial_border","pbrMetallicRoughness":{"baseColorFactor":[0.24313725490196078,0.6235294117647059,0.7215686274509804,1],"metallicFactor":0,"roughnessFactor":0.72},"doubleSided":false,"extras":{"region":"medial_border","label":"Medial border","highlightColor":"#3E9FB8"}},{"name":"lateral_border","pbrMetallicRoughness":{"baseColorFactor":[0.2980392156862745,0.4980392156862745,0.8196078431372549,1],"metallicFactor":0,"roughnessFactor":0.72},"doubleSided":false,"extras":{"region":"lateral_border","label":"Lateral border","highlightColor":"#4C7FD1"}},{"name":"dorsum_midfoot","pbrMetallicRoughness":{"baseColorFactor":[0.43529411764705883,0.38823529411764707,0.7686274509803922,1],"metallicFactor":0,"roughnessFactor":0.72},"doubleSided":false,"extras":{"region":"dorsum_midfoot","label":"Dorsal midfoot","highlightColor":"#6F63C4"}},{"name":"heel_plantar","pbrMetallicRoughness":{"baseColorFactor":[0.6078431372549019,0.3411764705882353,0.7098039215686275,1],"metallicFactor":0,"roughnessFactor":0.72},"doubleSided":false,"extras":{"region":"heel_plantar","label":"Plantar heel","highlightColor":"#9B57B5"}},{"name":"achilles_heel","pbrMetallicRoughness":{"baseColorFactor":[0.7607843137254902,0.3215686274509804,0.5607843137254902,1],"metallicFactor":0,"roughnessFactor":0.72},"doubleSided":false,"extras":{"region":"achilles_heel","label":"Posterior heel / Achilles insertion","highlightColor":"#C2528F"}},{"name":"medial_malleolus","pbrMetallicRoughness":{"baseColorFactor":[0.8509803921568627,0.4392156862745098,0.3568627450980392,1],"metallicFactor":0,"roughnessFactor":0.72},"doubleSided":false,"extras":{"region":"medial_malleolus","label":"Medial malleolus / medial ankle","highlightColor":"#D9705B"}},{"name":"lateral_malleolus","pbrMetallicRoughness":{"baseColorFactor":[0.7215686274509804,0.5294117647058824,0.24313725490196078,1],"metallicFactor":0,"roughnessFactor":0.72},"doubleSided":false,"extras":{"region":"lateral_malleolus","label":"Lateral malleolus / lateral ankle","highlightColor":"#B8873E"}},{"name":"ankle_anterior","pbrMetallicRoughness":{"baseColorFactor":[0.35294117647058826,0.6509803921568628,0.6274509803921569,1],"metallicFactor":0,"roughnessFactor":0.72},"doubleSided":false,"extras":{"region":"ankle_anterior","label":"Anterior ankle","highlightColor":"#5AA6A0"}},{"name":"lower_leg","pbrMetallicRoughness":{"baseColorFactor":[0.5411764705882353,0.5882352941176471,0.6392156862745098,1],"metallicFactor":0,"roughnessFactor":0.72},"doubleSided":false,"extras":{"region":"lower_leg","label":"Lower leg (shank)","highlightColor":"#8A96A3"}}],"accessors":[{"bufferView":0,"componentType":5126,"count":351,"type":"VEC3","min":[0.007565711754514684,-0.004122476926363833,0.19],"max":[0.046,0.0680472606629093,0.26449855824363644]},{"bufferView":1,"componentType":5126,"count":351,"type":"VEC3"},{"bufferView":2,"componentType":5123,"count":1317,"type":"SCALAR"},{"bufferView":3,"componentType":5126,"count":1287,"type":"VEC3","min":[-0.054,-0.011000000000000001,0.19],"max":[0.034,0.069,0.26552363033145465]},{"bufferView":4,"componentType":5126,"count":1287,"type":"VEC3"},{"bufferView":5,"componentType":5123,"count":5151,"type":"SCALAR"},{"bufferView":6,"componentType":5126,"count":150,"type":"VEC3","min":[-0.04324650565931612,-0.008,0.15],"max":[0.04324650565931611,0.014814069130885467,0.208]},{"bufferView":7,"componentType":5126,"count":150,"type":"VEC3"},{"bufferView":8,"componentType":5123,"count":150,"type":"SCALAR"},{"bufferView":9,"componentType":5126,"count":195,"type":"VEC3","min":[-0.048,0.030000000000000002,0.15],"max":[0.048,0.07200000000000001,0.208]},{"bufferView":10,"componentType":5126,"count":195,"type":"VEC3"},{"bufferView":11,"componentType":5123,"count":195,"type":"SCALAR"},{"bufferView":12,"componentType":5126,"count":240,"type":"VEC3","min":[-0.03784069245190161,-0.009000000000000001,0.07],"max":[0.0378406924519016,0.013946301652650352,0.15]},{"bufferView":13,"componentType":5126,"count":240,"type":"VEC3"},{"bufferView":14,"componentType":5123,"count":240,"type":"SCALAR"},{"bufferView":15,"componentType":5126,"count":153,"type":"VEC3","min":[0.02793003490497499,0.012115720348238131,0.012],"max":[0.048,0.04279092109407784,0.208]},{"bufferView":16,"componentType":5126,"count":153,"type":"VEC3"},{"bufferView":17,"componentType":5123,"count":153,"type":"SCALAR"},{"bufferView":18,"componentType":5126,"count":147,"type":"VEC3","min":[-0.048,0.012115720348238141,0.012],"max":[-0.027930034904974994,0.04090083735825258,0.208]},{"bufferView":19,"componentType":5126,"count":147,"type":"VEC3"},{"bufferView":20,"componentType":5123,"count":147,"type":"SCALAR"},{"bufferView":21,"componentType":5126,"count":363,"type":"VEC3","min":[-0.0409469723116366,0.031,0.05],"max":[0.0409469723116366,0.077,0.15]},{"bufferView":22,"componentType":5126,"count":363,"type":"VEC3"},{"bufferView":23,"componentType":5123,"count":363,"type":"SCALAR"},{"bufferView":24,"componentType":5126,"count":180,"type":"VEC3","min":[-0.036038754716096764,-0.010999999999999996,0.012],"max":[0.036038754716096764,0.01390911547882745,0.07]},{"bufferView":25,"componentType":5126,"count":180,"type":"VEC3"},{"bufferView":26,"componentType":5123,"count":180,"type":"SCALAR"},{"bufferView":27,"componentType":5126,"count":168,"type":"VEC3","min":[-0.034,-0.010000000000000002,0],"max":[0.034,0.07400000000000001,0.012]},{"bufferView":28,"componentType":5126,"count":168,"type":"VEC3"},{"bufferView":29,"componentType":5123,"count":168,"type":"SCALAR"},{"bufferView":30,"componentType":5126,"count":210,"type":"VEC3","min":[0.019,0.039999999999999994,0.001275792965999941],"max":[0.040999999999999995,0.064,0.02272420703400006]},{"bufferView":31,"componentType":5126,"count":210,"type":"VEC3"},{"bufferView":32,"componentType":5123,"count":1176,"type":"SCALAR"},{"bufferView":33,"componentType":5126,"count":210,"type":"VEC3","min":[-0.04,0.03900000000000001,0.0022507208781817646],"max":[-0.019999999999999997,0.061,0.021749279121818236]},{"bufferView":34,"componentType":5126,"count":210,"type":"VEC3"},{"bufferView":35,"componentType":5123,"count":1176,"type":"SCALAR"},{"bufferView":36,"componentType":5126,"count":108,"type":"VEC3","min":[-0.04,0.032,0.012],"max":[0.04,0.077,0.05]},{"bufferView":37,"componentType":5126,"count":108,"type":"VEC3"},{"bufferView":38,"componentType":5123,"count":108,"type":"SCALAR"},{"bufferView":39,"componentType":5126,"count":216,"type":"VEC3","min":[-0.03423681698029192,0.049999999999999996,-0.01],"max":[0.03423681698029193,0.16,0.03]},{"bufferView":40,"componentType":5126,"count":216,"type":"VEC3"},{"bufferView":41,"componentType":5123,"count":924,"type":"SCALAR"}],"bufferViews":[{"buffer":0,"byteOffset":0,"byteLength":4212,"target":34962},{"buffer":0,"byteOffset":4212,"byteLength":4212,"target":34962},{"buffer":0,"byteOffset":8424,"byteLength":2634,"target":34963},{"buffer":0,"byteOffset":11060,"byteLength":15444,"target":34962},{"buffer":0,"byteOffset":26504,"byteLength":15444,"target":34962},{"buffer":0,"byteOffset":41948,"byteLength":10302,"target":34963},{"buffer":0,"byteOffset":52252,"byteLength":1800,"target":34962},{"buffer":0,"byteOffset":54052,"byteLength":1800,"target":34962},{"buffer":0,"byteOffset":55852,"byteLength":300,"target":34963},{"buffer":0,"byteOffset":56152,"byteLength":2340,"target":34962},{"buffer":0,"byteOffset":58492,"byteLength":2340,"target":34962},{"buffer":0,"byteOffset":60832,"byteLength":390,"target":34963},{"buffer":0,"byteOffset":61224,"byteLength":2880,"target":34962},{"buffer":0,"byteOffset":64104,"byteLength":2880,"target":34962},{"buffer":0,"byteOffset":66984,"byteLength":480,"target":34963},{"buffer":0,"byteOffset":67464,"byteLength":1836,"target":34962},{"buffer":0,"byteOffset":69300,"byteLength":1836,"target":34962},{"buffer":0,"byteOffset":71136,"byteLength":306,"target":34963},{"buffer":0,"byteOffset":71444,"byteLength":1764,"target":34962},{"buffer":0,"byteOffset":73208,"byteLength":1764,"target":34962},{"buffer":0,"byteOffset":74972,"byteLength":294,"target":34963},{"buffer":0,"byteOffset":75268,"byteLength":4356,"target":34962},{"buffer":0,"byteOffset":79624,"byteLength":4356,"target":34962},{"buffer":0,"byteOffset":83980,"byteLength":726,"target":34963},{"buffer":0,"byteOffset":84708,"byteLength":2160,"target":34962},{"buffer":0,"byteOffset":86868,"byteLength":2160,"target":34962},{"buffer":0,"byteOffset":89028,"byteLength":360,"target":34963},{"buffer":0,"byteOffset":89388,"byteLength":2016,"target":34962},{"buffer":0,"byteOffset":91404,"byteLength":2016,"target":34962},{"buffer":0,"byteOffset":93420,"byteLength":336,"target":34963},{"buffer":0,"byteOffset":93756,"byteLength":2520,"target":34962},{"buffer":0,"byteOffset":96276,"byteLength":2520,"target":34962},{"buffer":0,"byteOffset":98796,"byteLength":2352,"target":34963},{"buffer":0,"byteOffset":101148,"byteLength":2520,"target":34962},{"buffer":0,"byteOffset":103668,"byteLength":2520,"target":34962},{"buffer":0,"byteOffset":106188,"byteLength":2352,"target":34963},{"buffer":0,"byteOffset":108540,"byteLength":1296,"target":34962},{"buffer":0,"byteOffset":109836,"byteLength":1296,"target":34962},{"buffer":0,"byteOffset":111132,"byteLength":216,"target":34963},{"buffer":0,"byteOffset":111348,"byteLength":2592,"target":34962},{"buffer":0,"byteOffset":113940,"byteLength":2592,"target":34962},{"buffer":0,"byteOffset":116532,"byteLength":1848,"target":34963}],"buffers":[{"byteLength":118380,"uri":"data:application/octet-stream;base64,"}]}